<?xml version="1.0" encoding="iso-8859-1"?>
<!-- Generator: Adobe Illustrator 19.0.0, SVG Export Plug-In . SVG Version: 6.00 Build 0)  -->
<svg version="1.1" id="Capa_1" xmlns="http://www.w3.org/2000/svg" xmlns:xlink="http://www.w3.org/1999/xlink" x="0px" y="0px"
	 viewBox="0 0 512 512" style="enable-background:new 0 0 512 512;" xml:space="preserve">
<g>
	<g>
		<path d="M512,331.347V120.621L91.195,79.696l-6.3-53.688H0v30h58.21L91.207,337.23l-27.469,75.944h77.637
			c-3.001,6.523-4.688,13.771-4.688,21.409c0,28.347,23.062,51.409,51.409,51.409s51.409-23.062,51.409-51.409
			c0-7.638-1.687-14.886-4.688-21.409h134.275c-3.001,6.523-4.688,13.771-4.688,21.409c0,28.347,23.062,51.409,51.409,51.409
			s51.409-23.062,51.409-51.409c0-7.638-1.687-14.886-4.688-21.409h27.751v-30H106.492l10.761-29.751L512,331.347z M415.812,413.174
			c11.805,0,21.409,9.604,21.409,21.409s-9.604,21.409-21.409,21.409s-21.409-9.604-21.409-21.409S404.007,413.174,415.812,413.174z
			 M188.096,413.174c11.805,0,21.409,9.604,21.409,21.409s-9.604,21.409-21.409,21.409s-21.409-9.604-21.409-21.409
			S176.291,413.174,188.096,413.174z M94.772,110.186L482,147.846v155.132l-362.229,20.258L94.772,110.186z"/>
	</g>
</g>
<g>
</g>
<g>
</g>
<g>
</g>
<g>
</g>
<g>
</g>
<g>
</g>
<g>
</g>
<g>
</g>
<g>
</g>
<g>
</g>
<g>
</g>
<g>
</g>
<g>
</g>
<g>
</g>
<g>
</g>
</svg>
